<svg xmlns="http://www.w3.org/2000/svg" width="31" height="25" viewBox="0 0 31 25"><path fill="#00EBFF" d="M6.19427088,8.1109341 C7.4590276,7.08803881 8.50824699,7.79348384 9.90856177,9.48090834 C10.0658091,9.6713785 10.2772797,9.44845787 10.3979264,9.33981933 C10.5172175,9.22976991 12.3648739,7.49860782 12.4556978,7.41959798 C12.5451661,7.33635546 12.6536125,7.18115756 12.5112766,7.00761808 C12.3662294,6.8340786 11.8416197,6.1258118 11.5040802,5.66586164 C9.0531904,2.32910667 18.2087819,0.0660390313 16.8030448,0.03076678 C16.0872982,0.0110143193 13.2161785,-0.0242579319 12.7864594,0.0251232198 C11.0472495,0.215593377 8.86340912,1.90725055 7.76403324,2.69593809 C6.3257622,3.72024426 5.78895228,4.32128342 5.70083954,4.40452594 C5.29416535,4.77417913 5.63577167,5.62776761 4.89833581,6.30076217 C4.11887696,7.01043986 3.63222351,6.47289075 3.18081517,6.88487065 C2.95714437,7.09086059 2.33086612,7.57902855 2.15192948,7.74128091 C1.97163726,7.90635504 1.93910332,8.18430038 2.12346229,8.40581012 C2.12346229,8.40581012 3.83691619,10.3754126 3.98060773,10.550363 C4.1229437,10.7224916 4.51063975,10.8720459 4.74922194,10.6505362 C4.98915971,10.4304373 5.60594889,9.87031399 5.70897302,9.77155169 C5.81470831,9.67843295 5.64119399,8.55677536 6.19427088,8.1109341 Z M13.931925,8.84036426 C13.7692554,8.64425054 13.5672739,8.63860698 13.3937595,8.79944845 L11.4498569,10.5658828 C11.2966763,10.7069718 11.274987,10.9651647 11.4132563,11.1302388 L22.6564419,24.44763 C22.9194245,24.7622585 23.3748996,24.794709 23.6744829,24.5224072 L24.9893961,23.3753536 C25.290335,23.10023 25.3215134,22.6233492 25.0598863,22.3058989 L13.931925,8.84036426 Z M28.9232911,3.17281892 C28.8229781,2.47583924 28.4759495,2.62116091 28.2956573,2.91603693 C28.115365,3.21373473 27.3182836,4.47083777 26.9902331,5.04083735 C26.6648938,5.60519337 25.8623901,6.7212074 24.3685402,5.61930227 C22.8123337,4.47507044 23.3532103,3.67650667 23.6243265,3.13895756 C23.8967982,2.59858667 24.7331914,1.08329076 24.8538381,0.895642381 C24.9744848,0.705172224 24.8335044,0.152103324 24.3509177,0.383489293 C23.8669754,0.614875261 20.9307878,1.82965159 20.5241136,3.57210081 C20.1079503,5.34417871 20.8724978,6.92860824 19.3718701,8.50175064 L17.5513253,10.4769967 L19.3800035,12.6864505 L21.6221339,10.4713532 C22.1562327,9.9126407 23.2976315,9.36944803 24.330584,9.61494289 C26.5442471,10.1355613 27.7520694,9.27068572 28.4800162,7.84004321 C29.1334061,6.56177682 29.0249596,3.86979861 28.9232911,3.17281892 Z M5.65746096,22.4498097 C5.37550019,22.7446857 5.37550019,23.2243883 5.65746096,23.5192643 L6.94661812,24.8313921 C7.22857889,25.1262681 7.6759205,25.0021098 7.95788126,24.7072338 L14.6097154,17.9011002 L12.5722777,15.4828346 L5.65746096,22.4498097 Z"/></svg>