<svg xmlns="http://www.w3.org/2000/svg" width="31" height="25" viewBox="0 0 31 25"><path fill="#FFF" fill-opacity=".6" fill-rule="evenodd" d="M15,11 L16,12 L16,18 C16,18.55 15.5505,19 15,19 L9,19 C8.4495,19 8,18.55 8,18 L8,12 C8,11.45 8.4495,11 9,11 L15,11 Z M12.5,12.5 L11.5,12.5 L11.5,14.5 L9.5,14.5 L9.5,15.5 L11.5,15.5 L11.5,17.5 L12.5,17.5 L12.5,15.5 L14.5,15.5 L14.5,14.5 L12.5,14.5 L12.5,12.5 Z M20.5865,5 L15,5 C14.4495,5 14,5.45 14,6 L14,9.99725944 L15,9.99725944 L17.003837,12 L17.003837,13 L21,13 C21.5505,13 22,12.55 22,12 L22,6.5635 L20.5865,5 Z"/></svg>