<svg xmlns="http://www.w3.org/2000/svg" width="31" height="25" viewBox="0 0 31 25"><path fill="#FFF" fill-rule="evenodd" d="M10.5,15 C11.8807119,15 13,16.1192881 13,17.5 C13,18.8807119 11.8807119,20 10.5,20 C9.11928813,20 8,18.8807119 8,17.5 C8,16.1192881 9.11928813,15 10.5,15 Z M20.5,15 C21.8807119,15 23,16.1192881 23,17.5 C23,18.8807119 21.8807119,20 20.5,20 C19.1192881,20 18,18.8807119 18,17.5 C18,16.1192881 19.1192881,15 20.5,15 Z M15.5,10 C16.8807119,10 18,11.1192881 18,12.5 C18,13.8807119 16.8807119,15 15.5,15 C14.1192881,15 13,13.8807119 13,12.5 C13,11.1192881 14.1192881,10 15.5,10 Z M10.5,5 C11.8807119,5 13,6.11928813 13,7.5 C13,8.88071187 11.8807119,10 10.5,10 C9.11928813,10 8,8.88071187 8,7.5 C8,6.11928813 9.11928813,5 10.5,5 Z M20.5,5 C21.8807119,5 23,6.11928813 23,7.5 C23,8.88071187 21.8807119,10 20.5,10 C19.1192881,10 18,8.88071187 18,7.5 C18,6.11928813 19.1192881,5 20.5,5 Z"/></svg>