<svg xmlns="http://www.w3.org/2000/svg" width="31" height="25" viewBox="0 0 31 25"><path fill="#FFF" fill-opacity=".6" d="M15.5,0 C17.2632532,0 18.7219693,1.30387842 18.9645627,3.00004975 L22,3 C23.1045695,3 24,3.8954305 24,5 L24,11 C24,12.1045695 23.1045695,13 22,13 L18.9644196,13.0009499 C18.7213961,14.6966339 17.2629068,16 15.5,16 C13.7370932,16 12.2786039,14.6966339 12.0355804,13.0009499 L9,13 C8.44771525,13 8,13.4477153 8,14 L8,20 C8,20.5522847 8.44771525,21 9,21 L12.0354373,21.0000497 C12.2780307,19.3038784 13.7367468,18 15.5,18 C17.4329966,18 19,19.5670034 19,21.5 C19,23.4329966 17.4329966,25 15.5,25 C13.7370932,25 12.2786039,23.6966339 12.0355804,22.0009499 L9,22 C7.8954305,22 7,21.1045695 7,20 L7,14 C7,12.8954305 7.8954305,12 9,12 L12.0354373,12.0000497 C12.2780307,10.3038784 13.7367468,9 15.5,9 C17.2632532,9 18.7219693,10.3038784 18.9645627,12.0000497 L22,12 C22.5522847,12 23,11.5522847 23,11 L23,5 C23,4.44771525 22.5522847,4 22,4 L18.9644196,4.00094991 C18.7213961,5.69663386 17.2629068,7 15.5,7 C13.5670034,7 12,5.43299662 12,3.5 C12,1.56700338 13.5670034,0 15.5,0 Z M15.5,20 C14.6715729,20 14,20.6715729 14,21.5 C14,22.3284271 14.6715729,23 15.5,23 C16.3284271,23 17,22.3284271 17,21.5 C17,20.6715729 16.3284271,20 15.5,20 Z M15.5,11 C14.6715729,11 14,11.6715729 14,12.5 C14,13.3284271 14.6715729,14 15.5,14 C16.3284271,14 17,13.3284271 17,12.5 C17,11.6715729 16.3284271,11 15.5,11 Z M15.5,2 C14.6715729,2 14,2.67157288 14,3.5 C14,4.32842712 14.6715729,5 15.5,5 C16.3284271,5 17,4.32842712 17,3.5 C17,2.67157288 16.3284271,2 15.5,2 Z"/></svg>