<svg xmlns="http://www.w3.org/2000/svg" width="31" height="25" viewBox="0 0 31 25"><path fill="#FFF" fill-opacity=".15" d="M22,8 L16,8 C15.1022505,8 14.1090495,6 13,6 L9,6 C8,6 8,7 8,7 L8,10 L23,10 L23,9 C23,9 23,8 22,8 Z M23.506804,11 L7.49319603,11 C7.20225607,11 6.97426802,11.2138182 7.00234118,11.4618182 L7.78753881,18.4938182 C7.81901477,18.7803636 8.10144772,19 8.43917627,19 L22.5608237,19 C22.8985523,19 23.1801345,18.7803636 23.2124612,18.4938182 L23.9976588,11.4618182 C24.025732,11.2138182 23.7977439,11 23.506804,11 Z"/></svg>