<svg xmlns="http://www.w3.org/2000/svg" width="31" height="25" viewBox="0 0 31 25"><path fill="#FFF" fill-opacity=".6" fill-rule="evenodd" d="M31,10 L31,25 L4.4408921e-16,25 L4.4408921e-16,10 L31,10 Z M30,11 L1,11 L1,24 L30,24 L30,11 Z M4,21 L4,23 L2,23 L2,21 L4,21 Z M7,21 L7,23 L5,23 L5,21 L7,21 Z M29,21 L29,23 L27,23 L27,21 L29,21 Z M26,21 L26,23 L24,23 L24,21 L26,21 Z M23,21 L23,23 L8,23 L8,21 L23,21 Z M23,18 L23,20 L21,20 L21,18 L23,18 Z M26,18 L26,20 L24,20 L24,18 L26,18 Z M29,18 L29,20 L27,20 L27,18 L29,18 Z M20,18 L20,20 L18,20 L18,18 L20,18 Z M17,18 L17,20 L15,20 L15,18 L17,18 Z M14,18 L14,20 L12,20 L12,18 L14,18 Z M11,18 L11,20 L9,20 L9,18 L11,18 Z M8,18 L8,20 L6,20 L6,18 L8,18 Z M5,18 L5,20 L2,20 L2,18 L5,18 Z M4,15 L4,17 L2,17 L2,15 L4,15 Z M29,15 L29,17 L26,17 L26,15 L29,15 Z M7,15 L7,17 L5,17 L5,15 L7,15 Z M10,15 L10,17 L8,17 L8,15 L10,15 Z M13,15 L13,17 L11,17 L11,15 L13,15 Z M16,15 L16,17 L14,17 L14,15 L16,15 Z M19,15 L19,17 L17,17 L17,15 L19,15 Z M22,15 L22,17 L20,17 L20,15 L22,15 Z M25,15 L25,17 L23,17 L23,15 L25,15 Z M29,12 L29,14 L25,14 L25,12 L29,12 Z M9,12 L9,14 L7,14 L7,12 L9,12 Z M6,12 L6,14 L2,14 L2,12 L6,12 Z M12,12 L12,14 L10,14 L10,12 L12,12 Z M15,12 L15,14 L13,14 L13,12 L15,12 Z M18,12 L18,14 L16,14 L16,12 L18,12 Z M21,12 L21,14 L19,14 L19,12 L21,12 Z M24,12 L24,14 L22,14 L22,12 L24,12 Z"/></svg>