<svg xmlns="http://www.w3.org/2000/svg" width="31" height="25" viewBox="0 0 31 25"><path fill="#00EBFF" d="M18.0403656,2.29913392 C17.9387001,2.53570345 17.7978229,2.75348746 17.6240274,2.92712655 C17.6068963,2.94424245 17.6045334,2.94404783 17.5594518,2.8929094 L17.544,2.875 L17.5528137,2.88545731 C17.5580387,2.89145341 17.5642742,2.89863586 17.5736275,2.90940955 L17.6380894,2.98461143 C17.653903,3.00312237 17.6693141,3.02124726 17.7001363,3.05749705 C17.9189499,3.31392309 18.0400235,3.42703915 18.1586353,3.48125031 C18.76073,3.75638056 19.4259946,3.98648779 20.1436908,4.17351291 C21.2679663,4.46651963 21.9143132,5.13436616 22.0696332,6.21040387 C22.0988623,6.41273595 22.1405868,6.5856598 22.2440948,6.96178463 C22.2537776,6.99696313 22.2537776,6.99696313 22.2635212,7.03242319 C22.2862963,7.1154157 22.3097692,7.18635501 22.3659175,7.34667744 C22.4797249,7.67257353 22.5268153,7.83713808 22.5529313,8.03703172 C22.6075675,8.45560368 22.7271869,8.79846528 22.9349267,9.11495488 C23.3732508,9.78275134 23.5339329,10.5397744 23.4406483,11.367756 C23.4338688,11.4280117 23.4482227,11.5069929 23.4712908,11.5492946 C23.5360714,11.6680435 23.6023846,11.7653948 23.765408,11.9888263 C23.8405986,12.0918786 23.8742126,12.1384938 23.9161183,12.1987187 L24,12.4637861 L24,12.624275 L23.9660155,12.7974715 C23.7450817,13.3408772 23.7450817,13.3408772 23.5241827,13.8843362 C23.2763494,14.4937662 22.301523,14.7192025 21.8714937,14.1633165 C21.8385303,14.1211831 21.8385303,14.1211831 21.8023807,14.0762492 C21.7834629,14.0528464 21.7834629,14.0528464 21.7638945,14.0286937 C21.3010486,13.4571776 21.1474532,13.0855706 21.3603169,12.5027716 C21.3982535,12.3988524 21.4035495,12.2653293 21.3806951,12.2076319 C21.3088007,12.0261342 21.1766515,11.8300474 20.9797493,11.6026648 C20.3826512,10.9131065 20.1246353,10.3320054 20.2331089,9.58334823 C20.23565,9.56582976 20.189878,9.45267897 20.1370421,9.39680372 C20.0127128,9.26531224 19.8725002,9.13400008 19.6821928,8.96795157 C19.6617632,8.95012609 19.5942363,8.89216824 19.510989,8.82067544 C19.4360837,8.90726145 19.4356164,8.90779993 19.3608186,8.9939932 C18.9721338,9.44264315 18.7883853,9.69006487 18.6447998,9.99210215 C18.662084,10.1668801 18.6821661,10.2898951 18.7180361,10.4886886 L18.7481018,10.653985 C18.93789,11.6953812 19.0596448,12.144761 19.3316614,12.6366165 C19.9918602,13.8303344 20.2914102,15.1298029 20.252677,16.5337899 C20.2350933,17.1720209 20.3931722,17.7521318 20.7316773,18.2889854 C21.2212335,19.065423 21.4471991,19.9297586 21.4386606,20.889277 C21.437423,21.0287902 21.4346712,21.1658694 21.4295431,21.3672378 C21.428247,21.4177807 21.428247,21.4177807 21.4269372,21.4681612 C21.4120923,22.039147 21.4100267,22.2902312 21.4239559,22.5980765 C21.4277133,22.681122 21.4850328,22.8089986 21.5515386,22.8782844 C21.6507416,22.9816078 21.7532405,23.0628111 22.0002315,23.2411082 C22.1493377,23.3487451 22.2165764,23.3984867 22.2981675,23.4632418 C22.8091407,23.8686044 22.7394028,24.5085644 22.1208668,24.7709873 C21.5635435,25.0074431 21.2562615,25.0699591 20.8174044,24.9133573 C19.9028459,25.1480777 19.1795663,24.5723525 19.2477209,23.6811064 C19.2566464,23.5636366 19.2778953,23.455519 19.314794,23.3122437 C19.4471891,22.7985611 19.4131564,22.363137 19.1963636,21.9555258 L19.1697372,21.9052933 L19.1336951,21.8371454 C19.1268279,21.824136 19.1186065,21.8085536 19.1076446,21.7877771 C18.7445637,21.1001956 18.5448382,20.8110781 18.1974417,20.5437321 C17.4275951,19.9512768 17.1924816,19.0929688 17.4994218,18.1643082 C17.5187131,18.105916 17.5194891,18.1101084 17.4942028,18.08307 C16.8541794,17.3986867 16.3608755,16.6193692 16.0004593,15.7433139 C15.6416327,16.6134096 15.1495748,17.3909952 14.5108563,18.078304 C14.8312946,19.140891 14.514977,20.0198372 13.6311237,20.7103052 C13.4564816,20.846714 13.3651532,20.9360308 13.3228503,21.0118285 C13.1128877,21.3882084 12.9482973,21.7238736 12.6304469,22.404884 C12.6195567,22.4282048 12.6119862,22.4815363 12.6165828,22.5338117 C12.6370518,22.7653006 12.6596753,22.9528959 12.7153558,23.3767192 L12.730372,23.4913027 C12.7353477,23.5293591 12.7379157,23.5492269 12.7443358,23.5988962 C12.8654572,24.5407604 12.1148101,25.17122 11.152229,24.9308978 C10.7612592,25.0553207 10.4423806,24.9994835 9.94059352,24.8003434 C9.24578569,24.5247709 9.17213507,23.8608843 9.75589695,23.4220135 C9.81332878,23.3788143 9.85977869,23.3447983 9.96018914,23.2719366 C10.2135761,23.0880716 10.3195119,23.0060361 10.4315626,22.9010535 C10.5212737,22.8170319 10.5772752,22.7354341 10.5772748,22.7354382 C10.6074486,22.4168294 10.6035998,22.1000136 10.5734148,21.5798077 C10.4963482,20.2520549 10.607853,19.4006236 11.1109505,18.5800422 C11.575059,17.823098 11.7782218,17.0288427 11.7560155,16.1042697 C11.7306835,15.050381 11.9539812,14.0375134 12.4271943,13.1321179 C12.7908736,12.4362685 13.0139121,11.7342387 13.2880295,10.5572017 C13.3978832,10.0856157 13.3209961,9.77092119 13.021201,9.45955551 C12.9804446,9.41719965 12.9559684,9.38639947 12.9104531,9.3251916 C12.8964157,9.30640067 12.8761311,9.28104814 12.8495993,9.24913403 C12.7436396,9.12277758 12.6369626,8.99577147 12.4954606,8.82747036 C12.4216126,8.89598689 12.3589716,8.95399273 12.3294457,8.98086482 C12.1825696,9.11453954 12.0556756,9.2244882 11.9284529,9.32669144 C11.7920305,9.43632536 11.749872,9.54250725 11.7578746,9.768513 C11.7710007,10.1388101 11.7185525,10.4867928 11.579956,10.7810649 C11.4816943,10.9896114 11.379091,11.1315278 11.1449719,11.4172497 C11.0471902,11.5365803 11.0067713,11.5872347 10.9624044,11.6474936 C10.9319681,11.6886211 10.9319681,11.6886211 10.9023761,11.7281365 C10.6117141,12.1157442 10.5609834,12.2389817 10.6185876,12.4151972 C10.8112894,13.0046157 10.6945544,13.5509077 10.2532423,13.9938686 C10.0568647,14.3657693 9.74012624,14.4835296 9.36958779,14.4590912 C9.32466123,14.4561281 9.28888714,14.4523414 9.22637969,14.4447661 C9.19227941,14.4406157 9.19227941,14.4406157 9.16631091,14.4377318 C8.85339196,14.4048712 8.61202081,14.163065 8.49114485,13.9018961 C8.38733586,13.6775844 8.31303666,13.4978068 8.15360158,13.0963336 C8.09356985,12.9451718 8.06733813,12.8795075 8.03398455,12.7974715 L8,12.624275 L8,12.3192694 L8.08388167,12.1987187 C8.12473923,12.1400002 8.15821103,12.0931798 8.23067427,11.9927316 C8.39589306,11.7636872 8.46444819,11.6634247 8.53569891,11.5399837 C8.5571603,11.5027829 8.57009899,11.4477189 8.5677408,11.4299547 C8.44904644,10.5369558 8.64395338,9.70971162 9.15501218,8.96724126 C9.30727745,8.74602717 9.38920757,8.48672831 9.43164383,8.12221004 C9.43659093,8.07847477 9.43659093,8.07847477 9.44159045,8.03129673 C9.44701159,7.97989671 9.44701159,7.97989671 9.45310976,7.92520457 C9.48397964,7.65613429 9.52605725,7.4726625 9.62369628,7.28555657 C9.78012181,6.98570592 9.84979065,6.71632476 9.95948653,6.08705611 C9.9704487,6.02414217 9.9704487,6.02414217 9.98165786,5.96034448 C10.1310723,5.11387824 10.6966812,4.48642102 11.5436933,4.27737468 C11.826231,4.20765252 12.0556738,4.13174113 12.5566665,3.95092378 C12.590459,3.93872669 12.590459,3.93872669 12.6243897,3.92648781 C12.9587995,3.80591268 13.1500404,3.7403878 13.3673208,3.67549596 C13.7322854,3.56646501 14.0271856,3.37607301 14.3151941,3.07232858 C14.4613121,2.91826595 14.4664807,3.02748034 14.3125973,2.8993231 C13.8288074,2.49645907 13.7035947,1.70634049 14.2769814,1.37778583 C14.3803432,0.634685767 14.8224361,0.192440999 15.5245961,0.0634571244 C15.5513975,0.0479037846 15.5513975,0.0479037846 15.593963,0.031696889 L15.7746109,0 L16.2253891,0 L16.3746158,0.0213922394 C16.4194211,0.0345675217 16.4194211,0.0345675217 16.4635898,0.0476155227 C16.5563469,0.0750027641 16.5563469,0.0750027641 16.6358903,0.0980719004 C17.1877656,0.256569074 17.5600706,0.609076439 17.6887893,1.13899456 C17.7011097,1.18975406 17.7079009,1.22668786 17.7207007,1.30438359 C17.7337052,1.38328442 17.732509,1.39856694 17.725953,1.3981067 L17.7132043,1.39159369 C18.0560539,1.54110828 18.1665267,2.00538852 18.0403656,2.29913392 Z"/></svg>