<svg xmlns="http://www.w3.org/2000/svg" width="31" height="25" viewBox="0 0 31 25"><path fill="#FFF" fill-opacity=".6" d="M16.7598014,17.8685352 C18.1872491,16.4284742 19,14.5072738 19,12.4621328 C19,10.4556454 18.2178299,8.56783683 16.8381429,7.13589325 C16.670794,6.96220589 16.3909733,6.95390922 16.213146,7.11736212 C16.0353187,7.28081501 16.0268243,7.55412118 16.1941732,7.72780854 C17.4209881,9.00108988 18.1157138,10.6778468 18.1157138,12.4621328 C18.1157138,14.2807687 17.3938087,15.9872257 16.1244855,17.2677648 C15.9546331,17.4391181 15.9591608,17.7125144 16.1345984,17.8784126 C16.310036,18.0443107 16.5899489,18.0398885 16.7598014,17.8685352 Z M20.8069223,20.8445442 C22.857237,18.5168081 24,15.5831644 24,12.4833479 C24,9.39911875 22.8687509,6.4791995 20.8371589,4.156599 C20.6758506,3.97218474 20.3878638,3.94702976 20.1939223,4.10041378 C19.9999807,4.2537978 19.9735262,4.52763741 20.1348344,4.71205166 C22.0311946,6.88004957 23.0864961,9.60393685 23.0864961,12.4833479 C23.0864961,15.3773055 22.0204512,18.1140023 20.1066034,20.2868067 C19.9446316,20.4706943 19.9700993,20.7446185 20.163487,20.8986335 C20.3568747,21.0526485 20.6449505,21.0284319 20.8069223,20.8445442 Z M25.0532448,23.78569 C27.4953788,20.6788424 28.8855133,16.9047981 28.9901438,12.909121 C29.1027967,8.60707814 27.7129146,4.48710385 25.0960052,1.12333329 C24.9465563,0.931231918 24.6653993,0.893056 24.4680236,1.03806499 C24.2706478,1.18307399 24.2317955,1.45635593 24.3812444,1.64845731 C26.8765646,4.85593733 28.2013293,8.78288656 28.0938947,12.8856519 C27.9941088,16.6963203 26.669122,20.2934967 24.3405974,23.255812 C24.1903808,23.4469153 24.2281378,23.7204524 24.4249299,23.8667742 C24.6217221,24.013096 24.9030282,23.9767933 25.0532448,23.78569 Z M12.3880597,4.99493136 L12.3880597,19.8210717 C12.3880597,20.2999205 12.0926317,20.4312174 11.7335474,20.1189791 L7.376,16.3300671 L2.99303544,16.3301554 C2.44459711,16.3301554 2,15.8859358 2,15.3366684 L2,9.4793347 C2,8.93064699 2.44118913,8.48584771 2.99303544,8.48584771 L7.376,8.48506714 L11.7335474,4.69702399 C12.0950246,4.38270495 12.3880597,4.52092096 12.3880597,4.99493136 Z"/></svg>