<svg xmlns="http://www.w3.org/2000/svg" width="31" height="25" viewBox="0 0 31 25"><path fill="#FFF" fill-opacity=".15" d="M19.8994475,0 L11.1005525,0 C11.1005525,0 10,0 10,2 L21,2 C21,0 19.8994475,0 19.8994475,0 Z M24,5.29546427 C24,3.98013367 22.7862371,4.00001712 22.7862371,4.00001712 L8.21376292,4.00001712 C8.21376292,4.00001712 7,4.03539644 7,5.29546427 L7,7 L24,7 L24,5.29546427 Z M26.9246075,7.98239177 C26.1746566,7.14285714 26,7 26,7 L26,9 L5,9 L5,7 C5,7 4.82401321,7.14285714 4.07278686,7.98239177 C3.32156052,8.82192641 2.78333044,9.04599139 3.08560658,10.8186574 C3.38660729,12.5856509 4.84442003,22.2714981 5.06124258,23.5818528 C5.29847195,25.0198395 6.61343691,24.9999857 6.61343691,24.9999857 L24.3877838,24.9999857 C24.3877838,24.9999857 25.7014733,25.0198395 25.9399781,23.5818528 C26.1568007,22.2714981 27.613338,12.5856509 27.9156141,10.8186574 C28.2153394,9.04599139 27.6771093,8.82192641 26.9246075,7.98239177 Z M21,16.3283333 C21,17.2516667 20.382625,18 19.620875,18 L11.379125,18 C10.617375,18 10,17.2516667 10,16.3283333 L10,13 L12,13 C12,13 12,14.8726283 12,15.3410735 C12,15.8095187 12.3869478,16 12.5783165,16 L18.3978976,16 C18.6849049,16 19,15.6326688 19,15.2978914 C19,14.963114 19,13 19,13 L21,13 L21,16.3283333 Z"/></svg>