<svg xmlns="http://www.w3.org/2000/svg" width="31" height="25" viewBox="0 0 31 25"><path fill="#FFF" fill-opacity=".6" fill-rule="evenodd" d="M15.5,1 C21.8512746,1 27,6.14872538 27,12.5 C27,16.6475144 24.8043973,20.2822184 21.5120902,22.3052135 L21.0081127,21.4409992 C24.0036804,19.5916458 26,16.2789556 26,12.5 C26,6.70101013 21.2989899,2 15.5,2 C9.70101013,2 5,6.70101013 5,12.5 C5,16.2793781 6.99676599,19.5923865 9.99289214,21.4416194 L9.48890849,22.3058271 C6.19604673,20.2829534 4,16.6479338 4,12.5 C4,6.14872538 9.14872538,1 15.5,1 Z M15.5,3 C20.7467051,3 25,7.25329488 25,12.5 C25,15.9104429 23.2028938,18.9011491 20.5039939,20.5768063 L19.9989831,19.7130822 C22.4017022,18.2112748 24,15.5422886 24,12.5 C24,7.80557963 20.1944204,4 15.5,4 C10.8055796,4 7,7.80557963 7,12.5 C7,15.5422886 8.59829775,18.2112748 11.0010169,19.7130822 L10.4970097,20.5774293 C7.7975517,18.9018905 6,15.9108656 6,12.5 C6,7.25329488 10.2532949,3 15.5,3 Z M15.5,5 C19.6421356,5 23,8.35786438 23,12.5 C23,15.173366 21.6012782,17.5200429 19.4957327,18.8481328 L18.9911744,17.9838225 C20.8002554,16.8297024 22,14.8049589 22,12.5 C22,8.91014913 19.0898509,6 15.5,6 C11.9101491,6 9,8.91014913 9,12.5 C9,14.8053853 10.2001886,16.8304516 12.0098298,17.984463 L11.5052774,18.8487698 C9.39916916,17.5207934 8,15.1737934 8,12.5 C8,8.35786438 11.3578644,5 15.5,5 Z M15.5,7 C18.5375661,7 21,9.46243388 21,12.5 C21,14.4364219 19.9992788,16.1391129 18.4867861,17.1191234 L17.9815989,16.2544776 C19.1979024,15.4489193 20,14.0681296 20,12.5 C20,10.0147186 17.9852814,8 15.5,8 C13.0147186,8 11,10.0147186 11,12.5 C11,14.0681296 11.8020976,15.4489193 13.0184011,16.2544776 L12.514206,17.1197661 C11.0011588,16.1398574 10,14.4368453 10,12.5 C10,9.46243388 12.4624339,7 15.5,7 Z M15.5,9 C17.4329966,9 19,10.5670034 19,12.5 C19,13.6994157 18.3966807,14.7579186 17.4769633,15.3885876 L16.9705972,14.521935 C17.594514,14.0673664 18,13.3310363 18,12.5 C18,11.1192881 16.8807119,10 15.5,10 C14.1192881,10 13,11.1192881 13,12.5 C13,13.3310363 13.405486,14.0673664 14.0294028,14.521935 L13.5240383,15.3892742 C12.6037573,14.758687 12,13.6998511 12,12.5 C12,10.5670034 13.5670034,9 15.5,9 Z"/></svg>