<svg xmlns="http://www.w3.org/2000/svg" width="31" height="25" viewBox="0 0 31 25"><path fill="#FFF" fill-rule="evenodd" d="M15.5,5 C19.6421356,5 23,8.35786438 23,12.5 C23,15.217884 21.5543061,17.5981081 19.3899605,18.91363 L18.8984581,18.0418805 C20.7591495,16.8984095 22,14.8441128 22,12.5 C22,8.91014913 19.0898509,6 15.5,6 C11.9101491,6 9,8.91014913 9,12.5 C9,14.844528 10.24129,16.8991371 12.1025305,18.0424879 L11.6110397,18.9142378 C9.44613935,17.5988414 8,15.2183027 8,12.5 C8,8.35786438 11.3578644,5 15.5,5 Z M15.5,7 C18.5375661,7 21,9.46243388 21,12.5 C21,14.4698669 19.9644123,16.1978594 18.4079614,17.169253 L17.9169039,16.2965326 C19.1693798,15.4975332 20,14.0957675 20,12.5 C20,10.0147186 17.9852814,8 15.5,8 C13.0147186,8 11,10.0147186 11,12.5 C11,14.0961927 11.8310629,15.4982802 13.0840973,16.2971712 L12.5930422,17.1698792 C11.0360328,16.1986021 10,14.4702903 10,12.5 C10,9.46243388 12.4624339,7 15.5,7 Z M15.5,9 C17.4329966,9 19,10.5670034 19,12.5 C19,13.721619 18.3741369,14.7970599 17.425563,15.4231704 L16.9341129,14.5480203 C17.5786603,14.0958439 18,13.3471265 18,12.5 C18,11.1192881 16.8807119,10 15.5,10 C14.1192881,10 13,11.1192881 13,12.5 C13,13.3475614 13.4217724,14.0966126 14.0668799,14.5487164 L13.574437,15.4231704 C12.6258631,14.7970599 12,13.721619 12,12.5 C12,10.5670034 13.5670034,9 15.5,9 Z"/></svg>