<svg xmlns="http://www.w3.org/2000/svg" width="31" height="25" viewBox="0 0 31 25"><path fill="#FFF" fill-opacity=".15" d="M15.4999098,15.3876071 C18.6119285,15.3876071 21.2187325,14.2597197 21.3762866,12.7859653 C20.9127391,11.4024975 20.4075243,9.89123943 19.9114242,8.40776187 C19.5676699,9.46480908 17.6653019,10.214882 15.4999098,10.214882 C13.3345177,10.214882 11.4321497,9.46480908 11.0883953,8.40776187 C10.5922953,9.89123943 10.0870805,11.4024975 9.62483506,12.7859653 C9.78238914,14.2597197 12.387891,15.3876071 15.4999098,15.3876071 Z M15.4999098,6.07420166 C16.9634701,6.07420166 18.3215603,5.59082133 18.7200028,4.83935938 C18.1718188,3.19753309 17.7017607,1.7876738 17.4035798,0.900087509 C17.2056606,0.306974289 16.3085138,0 15.4999098,0 C14.6913057,0 13.7941589,0.306974289 13.5962397,0.900087509 C13.299361,1.7876738 12.8280008,3.19753309 12.2798167,4.83935938 C12.6782593,5.59082133 14.0376516,6.07420166 15.4999098,6.07420166 Z M26.9323469,16.7599628 L22.0429618,14.6569805 L22.606771,16.3335324 C22.5781248,18.110094 19.3463129,19.5268984 15.4999098,19.5268984 C11.6548088,19.5268984 8.42039265,18.1114831 8.39304855,16.3335324 L8.95685781,14.6569805 L4.0674727,16.7599628 C2.69636151,17.3489089 2.63776701,18.4392927 3.93986691,19.1824205 L13.1352964,24.4426541 C14.4347921,25.185782 16.5637254,25.185782 17.8645232,24.4426541 L27.0612548,19.1824205 C28.3620526,18.4392927 28.3034581,17.3489089 26.9323469,16.7599628 Z"/></svg>