<svg xmlns="http://www.w3.org/2000/svg" width="31" height="25" viewBox="0 0 31 25"><path fill="#00EBFF" fill-rule="evenodd" d="M13,7 L14,7 L14,8 L13,8 Z M15,7 L16,7 L16,8 L15,8 Z M17,8 L18,8 L18,9 L17,9 Z M18,10 L19,10 L19,11 L18,11 Z M13,15 L14,15 L14,16 L13,16 Z M11,14 L12,14 L12,15 L11,15 Z M10,12 L11,12 L11,13 L10,13 Z M10,10 L11,10 L11,11 L10,11 Z M11,8 L12,8 L12,9 L11,9 Z M14.48499,11.4126198 L21.8056388,14.4286858 L19.646,15.524 L21.7757586,17.6248154 C22.0372104,17.8749038 22.0600355,17.9061648 21.8961094,18.0746272 L21.7757586,18.1950169 L21.1930947,18.7802238 C20.9241729,19.0503192 20.939113,19.0953351 20.6253709,18.7802238 L18.55,16.709 L17.48795,18.9752927 L14.48499,11.4126198 Z"/></svg>