<svg xmlns="http://www.w3.org/2000/svg" width="31" height="25" viewBox="0 0 31 25"><path fill="#FFF" fill-opacity=".6" fill-rule="evenodd" d="M19.8542964,12.4501109 L19.8542964,12.5498891 C19.7672846,12.775122 19.6802728,13.0003548 19.5932944,13.2255876 C19.5275196,13.3958093 19.241386,13.4725055 19.1364326,13.3297228 C18.9746587,13.1097118 18.7617228,12.9016408 18.8760298,12.5722727 C18.9169393,12.4543348 18.9279905,12.298714 18.8854167,12.1855987 C18.8228374,12.0193348 18.7141227,11.8640133 18.5996492,11.7248891 C18.3527608,11.4248226 18.1664212,11.1171729 18.223841,10.7000998 C18.2393859,10.5873171 18.1734447,10.4327605 18.0933566,10.3436253 C17.9070169,10.1362195 17.6892878,9.95698448 17.4640358,9.74751663 C17.2206758,10.0837361 16.8998573,10.3861308 16.7172458,10.7903991 C16.6890852,10.8527273 16.674905,10.9343126 16.6879867,11.0002993 C16.8017944,11.5744235 16.8525235,12.1670067 17.1308014,12.6965632 C17.5061104,13.4107428 17.6616597,14.1726829 17.640689,14.9726718 C17.6288722,15.4240687 17.7358228,15.8410421 17.9660345,16.2252882 C18.2362902,16.6763858 18.3456042,17.1661973 18.3412103,17.6858426 C18.3381812,18.0452106 18.3173769,18.4051109 18.3327887,18.7635809 C18.3381479,18.8882373 18.4014595,19.033714 18.4859414,19.1263415 C18.6221179,19.2756098 18.7994035,19.3869956 18.956251,19.5180044 C19.0912957,19.6307539 19.0810101,19.7574723 18.9212333,19.8288137 C18.7508047,19.904878 18.5772472,19.9852661 18.3781587,19.9104989 C18.3262312,19.8909756 18.2570279,19.8998891 18.200174,19.9138248 C17.8589507,19.9975055 17.6181538,19.7978825 17.6437514,19.4455987 C17.648112,19.3851996 17.6611271,19.324867 17.6755736,19.2658315 C17.7638836,18.9052328 17.7534981,18.5557095 17.5820709,18.2164967 C17.4026216,17.8613858 17.2410806,17.5067738 16.9133385,17.2413304 C16.5486813,16.9459867 16.4559775,16.5359645 16.5980124,16.0837029 C16.6379899,15.9563525 16.6241425,15.847561 16.5332029,15.7452217 C16.0261114,15.1745565 15.702397,14.5082373 15.5093999,13.7742683 C15.4874306,13.6906874 15.4607013,13.608337 15.4262494,13.4918293 C15.4048793,13.5480044 15.39719,13.5627384 15.3936284,13.5784035 C15.2099849,14.3853769 14.8753524,15.117949 14.3234901,15.7429268 C14.2392079,15.8383481 14.2123787,15.9398559 14.25199,16.0642129 C14.4191897,16.58898 14.2522896,17.0056541 13.8380017,17.3462639 C13.7409373,17.4260532 13.6389132,17.5165854 13.5816266,17.624612 C13.4289732,17.9126053 13.295726,18.2112417 13.1634774,18.5094457 C13.1335193,18.5769623 13.124432,18.6613082 13.1306566,18.7358093 C13.1495635,18.9608426 13.1798878,19.1849446 13.2072829,19.4092129 C13.2533851,19.7865078 13.0024357,20.0075166 12.6392764,19.9120953 C12.5877484,19.8985588 12.52457,19.8899778 12.477103,19.9073392 C12.2923611,19.9749224 12.126393,19.9125277 11.9626884,19.8441796 C11.7661962,19.7621619 11.7545791,19.631286 11.9239425,19.4972838 C12.0668761,19.3841353 12.2182646,19.279235 12.3473842,19.151918 C12.4262407,19.0741907 12.512154,18.9647339 12.5213079,18.8629268 C12.5439763,18.61102 12.5337572,18.3547894 12.5197767,18.1012195 C12.4873554,17.5133592 12.4948782,16.9219734 12.7971559,16.4030931 C13.1078218,15.8698448 13.232714,15.3177716 13.2187668,14.7066297 C13.2052524,14.1149113 13.3201918,13.5300443 13.5841564,12.9985255 C13.8490862,12.4650443 13.9895234,11.9045565 14.1168122,11.3293348 C14.1998961,10.953969 14.1391809,10.6552993 13.8879652,10.3807095 C13.8619349,10.3522395 13.8419628,10.3182816 13.8177966,10.287949 C13.6705024,10.1030266 13.5228087,9.91843681 13.384502,9.74532151 C13.1882095,9.93297118 13.0171818,10.112439 12.8289448,10.2715854 C12.6637423,10.4113082 12.6154098,10.5737472 12.6224999,10.7844789 C12.6280921,10.95051 12.6099175,11.1330044 12.5433105,11.2818404 C12.4637217,11.459612 12.3202555,11.6085477 12.2063812,11.7713193 C12.0515975,11.992561 11.8690858,12.2069845 11.9627549,12.5085477 C12.0430761,12.7671064 12.0043968,12.9961973 11.8153609,13.1958869 C11.7929588,13.2195344 11.7777467,13.250765 11.7624681,13.2801996 C11.6848432,13.4298337 11.5399124,13.3932483 11.423009,13.3803437 C11.3640248,13.3738248 11.2935898,13.2892461 11.2648633,13.2239246 C11.1677656,13.0031153 11.0870118,12.775122 11,12.5498891 L11,12.4501109 C11.094468,12.3072284 11.1975906,12.1690687 11.2796759,12.0194013 C11.3192207,11.9472616 11.3431872,11.8504102 11.3330347,11.7699224 C11.2722197,11.2883925 11.3687848,10.8446785 11.6335815,10.4398115 C11.7650978,10.2387251 11.8180238,10.0178825 11.843921,9.7837694 C11.8596656,9.64155211 11.8666892,9.4872949 11.9281034,9.36343681 C12.0714031,9.0743459 12.1143764,8.76726164 12.1665369,8.45625277 C12.2344087,8.05158537 12.4794331,7.75108647 12.8697212,7.64971175 C13.2471272,7.55169623 13.5948747,7.38659645 13.9615291,7.27135255 C14.2450331,7.18221729 14.4616304,7.02466741 14.6538286,6.81134146 C14.8492223,6.59452328 14.846293,6.47099778 14.6272657,6.27902439 C14.4769424,6.14728381 14.4321716,5.89291574 14.5636546,5.81362528 C14.6735677,5.74730599 14.6877146,5.65986696 14.7030931,5.55756098 C14.7468653,5.26637472 14.9115685,5.09036585 15.2028283,5.03405765 C15.234251,5.02800443 15.2636433,5.01160754 15.2940009,5 L15.5602955,5 C15.6123228,5.0160643 15.6642503,5.03242794 15.7163442,5.0481929 C15.9344395,5.11411308 16.0807684,5.24745011 16.1336278,5.4764745 C16.1642184,5.60911308 16.1493392,5.76207317 16.314575,5.83793792 C16.3505914,5.85446785 16.3757895,5.96878049 16.3558507,6.01763858 C16.3120785,6.1248337 16.2494993,6.23152993 16.1700103,6.31511086 C16.0810014,6.40870288 16.014694,6.56761641 16.0949153,6.66250554 C16.2400458,6.83425721 16.3813151,7.04269401 16.5728475,7.13482262 C16.962836,7.32237251 17.3778229,7.46941242 17.7959721,7.58409091 C18.3365502,7.73236142 18.6401926,8.04496674 18.716719,8.60292683 C18.7419837,8.78698448 18.7911151,8.96841463 18.8381494,9.14874723 C18.8893778,9.34521064 18.977022,9.53575388 19.0017208,9.73471175 C19.0372379,10.0210754 19.1167934,10.2799667 19.2703788,10.5262195 C19.500524,10.8952328 19.5719242,11.3037916 19.5255557,11.736929 C19.5157028,11.8290909 19.5332116,11.9374834 19.5754859,12.0190687 C19.6538764,12.1702993 19.7598284,12.3072284 19.8542964,12.4501109"/></svg>