<svg xmlns="http://www.w3.org/2000/svg" width="31" height="25" viewBox="0 0 31 25"><path fill="#00EBFF" d="M21.5554431,12.4995536 C21.5554431,11.5630022 22.1321945,10.8255461 22.9991072,10.3184334 C22.8419737,9.79703589 22.635736,9.29617285 22.3812868,8.82566514 C21.4090233,9.08011428 20.6224629,8.69977978 19.9608952,8.03731921 C19.2993274,7.37664425 19.0966609,6.59008392 19.3511101,5.61692756 C18.8806023,5.36247842 18.3797393,5.15445509 17.8583418,5 C17.3512291,5.86601988 16.4343194,6.44187846 15.4995536,6.44187846 C14.563895,6.44187846 13.6478781,5.86601988 13.1398726,5 C12.6175823,5.15445509 12.1185049,5.36247842 11.6479971,5.61692756 C11.9024463,6.59008392 11.7006726,7.37664425 11.0373192,8.03731921 C10.3766442,8.69977978 9.59008392,9.08011428 8.61692756,8.82566514 C8.36247842,9.29617285 8.1553479,9.79703589 8,10.3184334 C8.86601988,10.8255461 9.44187846,11.5630022 9.44187846,12.4995536 C9.44187846,13.4343194 8.86601988,14.3512291 8,14.8592346 C8.1562407,15.3806321 8.36247842,15.8806023 8.61692756,16.3520029 C9.59008392,16.0975537 10.3766442,16.2993274 11.0373192,16.9608952 C11.698887,17.6233558 11.9024463,18.4099161 11.6479971,19.3812868 C12.1185049,19.635736 12.6184751,19.8437593 13.1407654,20 C13.6478781,19.1313017 14.5647878,18.5563359 15.5004464,18.5563359 C16.4352122,18.5563359 17.3521219,19.1321945 17.8601274,20 C18.3815249,19.8428665 18.8814951,19.635736 19.3528957,19.3812868 C19.0984465,18.4099161 19.3002202,17.6233558 19.9626808,16.9608952 C20.6242486,16.3002202 21.4108089,15.9198857 22.3830724,16.1725493 C22.6375216,15.7020415 22.8446521,15.2029641 23.0008928,14.679781 C22.1321945,14.1717755 21.5554431,13.4343194 21.5554431,12.4995536 Z M15.4995536,15.7600738 C13.6978751,15.7600738 12.2381406,14.3003393 12.2381406,12.4995536 C12.2381406,10.6978751 13.6987679,9.23724778 15.4995536,9.23724778 C17.3012321,9.23724778 18.7600738,10.6987679 18.7600738,12.4995536 C18.7600738,14.3012321 17.3012321,15.7600738 15.4995536,15.7600738 Z"/></svg>