<svg xmlns="http://www.w3.org/2000/svg" width="31" height="25" viewBox="0 0 31 25"><path fill="#00EBFF" fill-rule="evenodd" d="M12.9889809,4.47271424 L13.8934133,4.78287963 L11.8084205,11.7617142 L11.8375503,11.7699279 C12.5404141,11.9918181 13.2986838,12.441362 14.1123593,13.1185597 L14.3856366,13.3527238 L13.6811293,14.0477544 C13.0577386,13.4529838 12.3599083,13.016824 11.5876385,12.7392751 C11.5653882,12.7312785 11.5436527,12.723095 11.5224287,12.7147374 L9.7554348,18.6328521 L15.8354205,18.6327142 L15.834618,18.6196158 C15.7836833,17.8167041 15.6363624,17.1133066 15.3926553,16.5094231 L15.2823082,16.2567087 L16.1411541,15.864298 C16.3486573,16.1750106 16.5591985,16.8979958 16.7727778,18.0332537 C16.8151992,18.25874 16.8314679,18.4589256 16.8275634,18.6333616 L23.0839272,18.6328521 L23.0839272,19.5568495 L8.45642054,19.5568495 L12.9889809,4.47271424 Z M15.0890029,14.0972297 L15.6642279,14.9372947 L14.857569,15.4505886 L14.3328651,14.7350833 L15.0890029,14.0972297 Z M21,11 C22.1045695,11 23,11.8954305 23,13 C23,14.1045695 22.1045695,15 21,15 C19.8954305,15 19,14.1045695 19,13 C19,11.8954305 19.8954305,11 21,11 Z M21,12 C20.4477153,12 20,12.4477153 20,13 C20,13.5522847 20.4477153,14 21,14 C21.5522847,14 22,13.5522847 22,13 C22,12.4477153 21.5522847,12 21,12 Z"/></svg>