<svg xmlns="http://www.w3.org/2000/svg" width="31" height="25" viewBox="0 0 31 25"><path fill="#FFF" fill-rule="evenodd" d="M6.87194628,0 L8.24318255,0.446638166 L5.082,10.495 L5.12622897,10.5079876 C6.21918513,10.8357024 7.40050677,11.5082654 8.67019388,12.5256767 L8.9894566,12.7872138 L7.92133267,13.7880579 C6.97619185,12.9315881 5.91819109,12.303518 4.7473304,11.9038477 C4.71399181,11.8924676 4.68141546,11.8808248 4.6495966,11.8689368 L1.96947323,20.3905986 L11.188,20.39 L11.1862994,20.3715382 C11.1068694,19.1823113 10.8728357,18.1446904 10.4841983,17.2586753 L10.3489264,16.968952 L11.6510476,16.4038806 C11.9656493,16.8513068 12.284857,17.8924055 12.6086707,19.5271768 C12.6729457,19.8516688 12.6976208,20.1397745 12.6917441,20.3908488 L22.1771875,20.3905986 L22.1771875,21.7211548 L1.77635684e-15,21.7211548 L6.87194628,0 Z M10.0558506,13.8593023 L10.927966,15.0689959 L9.70496701,15.808139 L8.90944822,14.7778114 L10.0558506,13.8593023 Z M19.017685,9.3992915 C20.6923549,9.3992915 22.049943,10.6887114 22.049943,12.2792915 C22.049943,13.8698716 20.6923549,15.1592915 19.017685,15.1592915 C17.3430151,15.1592915 15.9854269,13.8698716 15.9854269,12.2792915 C15.9854269,10.6887114 17.3430151,9.3992915 19.017685,9.3992915 Z M19.017685,10.8392915 C18.18035,10.8392915 17.501556,11.4840015 17.501556,12.2792915 C17.501556,13.0745815 18.18035,13.7192915 19.017685,13.7192915 C19.8550199,13.7192915 20.533814,13.0745815 20.533814,12.2792915 C20.533814,11.4840015 19.8550199,10.8392915 19.017685,10.8392915 Z" transform="translate(4.661 1.44)"/></svg>