<svg xmlns="http://www.w3.org/2000/svg" width="31" height="25" viewBox="0 0 31 25"><path fill="#FFF" fill-rule="evenodd" d="M9.75,14.5 C10.7164983,14.5 11.5,13.7164983 11.5,12.75 C11.5,11.7835017 10.7164983,11 9.75,11 C8.78350169,11 8,11.7835017 8,12.75 C8,13.7164983 8.78350169,14.5 9.75,14.5 Z M15.25,14.5 C16.2164983,14.5 17,13.7164983 17,12.75 C17,11.7835017 16.2164983,11 15.25,11 C14.2835017,11 13.5,11.7835017 13.5,12.75 C13.5,13.7164983 14.2835017,14.5 15.25,14.5 Z M20.75,14.5 C21.7164983,14.5 22.5,13.7164983 22.5,12.75 C22.5,11.7835017 21.7164983,11 20.75,11 C19.7835017,11 19,11.7835017 19,12.75 C19,13.7164983 19.7835017,14.5 20.75,14.5 Z"/></svg>