<svg xmlns="http://www.w3.org/2000/svg" width="31" height="25" viewBox="0 0 31 25"><path fill="#FFF" fill-opacity=".15" fill-rule="evenodd" d="M23.817,13.004 L23.8124681,13.0522393 C23.4510838,16.0835173 22.5939255,19.1266536 21.5939671,22.5048741 C21.5105776,22.7868575 21.3371776,23.0353587 21.0986406,23.2143667 C19.5654189,24.3658425 17.5771338,25 15.4997328,25 C13.4223319,25 11.4341363,24.3658425 9.90118298,23.2142795 C9.66291445,23.0354459 9.4894249,22.7867703 9.40603539,22.5049613 C8.40607705,19.1267408 7.54891877,16.0837789 7.1875344,13.0523265 C7.1856185,13.0362531 7.18371719,13.0201868 7.18183049,13.0041276 L23.817,13.004 Z M14.9993325,0.0240754942 L15.0002279,3.0644591 C14.4174837,3.22009658 14,3.64027527 14,4.1342171 L14,8.86561881 C14,9.35975472 14.4174837,9.77992344 15.0002279,9.93554803 L15,12 L7.08222792,12.0002128 C6.83899925,8.9803453 7.13332614,6.18392037 7.99244002,3.28161022 C8.07574006,2.99988839 8.24922961,2.75130005 8.48767709,2.57229204 C10.4398148,1.10604808 12.4289052,0.253645555 14.4154903,0.0252860815 L14.5760301,0.0251471064 C14.6093272,0.0251007845 14.6469846,0.0250390224 14.6882097,0.0249566734 L14.9993325,0.0240754942 Z M16.3629753,1.23909252e-15 C18.4231973,0.188686484 20.487714,1.05146502 22.5123255,2.57220484 C22.7506835,2.75121286 22.9240835,2.99988839 23.007473,3.28152302 C23.8666672,6.18383317 24.1610023,8.98025811 23.9177745,12.0001256 L16,12 L16.0012764,9.93511992 C16.5832131,9.77915402 17,9.35930231 17,8.86561881 L17,4.1342171 C17,3.6407275 16.5831458,3.22086603 16.0012335,3.06488725 L16.0026031,0.0156422179 C16.2159084,0.0119878321 16.3629754,0.00694867276 16.3629753,1.23909252e-15 Z M15.4999515,4 C15.7736775,4 16,4.13978408 16,4.24687342 L16,8.7529703 C16,8.86029111 15.7737883,9 15.4999515,9 C15.2261495,9 15,8.86032723 15,8.7529703 L15,4.24687342 C15,4.13971037 15.2262049,4 15.4999515,4 Z"/></svg>