<svg xmlns="http://www.w3.org/2000/svg" width="31" height="25" viewBox="0 0 31 25"><path fill="#FFF" fill-opacity=".15" d="M12.7573589,9 C13.0845694,9 13.5423096,9.158 13.7738376,9.3525 L14.1258546,9.6465 C14.3573826,9.841 14.8157134,10 15.1429239,10 L19.1674942,10 C19.4952953,10 19.8165994,10.1795 19.8821596,10.3995 L20.0008768,11 L10.0008768,11 L10.1733415,9.497 C10.20937,9.2235 10.5070489,9 10.8348499,9 L12.7573589,9 Z M22,4 L25,6.5 L22,9 L22,7 L21.5902024,7 C20.0899944,7 18.7933049,7.81796801 18.1876928,8.9984497 L17.0261764,9 C17.6921809,7.25373985 19.4841037,6 21.5902024,6 L22,6 L22,4 Z M20.6518616,12.0024764 L9.34813838,12.0024764 C9.14276899,12.0024764 8.98183625,12.1895673 9.0016526,12.4065673 L9.55590975,18.5595673 C9.57812807,18.8102946 9.77749251,19.0024764 10.0158891,19.0024764 L19.9841109,19.0024764 C20.2225075,19.0024764 20.4212714,18.8102946 20.4440903,18.5595673 L20.9983474,12.4065673 C21.0181637,12.1895673 20.857231,12.0024764 20.6518616,12.0024764 Z"/></svg>