<svg xmlns="http://www.w3.org/2000/svg" width="31" height="25" viewBox="0 0 31 25"><path fill="#00EBFF" d="M15.5,2 C17.709139,2 19.5,3.790861 19.5,6 C19.5,7.18299613 18.9864503,8.24604632 18.1701262,8.97837537 L22.5462338,16.2723796 C22.9968307,16.0965177 23.4871439,16 24,16 C26.209139,16 28,17.790861 28,20 C28,22.209139 26.209139,24 24,24 C21.790861,24 20,22.209139 20,20 L11,20 C11,22.1421954 9.31603153,23.8910789 7.19964034,23.9951047 L7,24 C4.790861,24 3,22.209139 3,20 C3,17.790861 4.790861,16 7,16 C7.5128561,16 8.00316929,16.0965177 8.45376618,16.2723796 L12.8298738,8.97837537 C12.0135497,8.24604632 11.5,7.18299613 11.5,6 C11.5,3.790861 13.290861,2 15.5,2 Z M17.3469604,9.54898836 C16.7944521,9.83711242 16.1662483,10 15.5,10 C14.8341502,10 14.2062993,9.8373072 13.654031,9.54950519 L9.33317619,16.7505852 C10.0822772,17.2894125 10.6374787,18.080877 10.8740452,19.0002435 L20.1259548,19.0002435 C20.3626291,18.0804584 20.9182286,17.2886916 21.6678474,16.7498492 L17.3469604,9.54898836 Z"/></svg>