<svg xmlns="http://www.w3.org/2000/svg" width="31" height="25" viewBox="0 0 31 25"><path fill="#FFF" fill-opacity=".6" d="M15,11 L9,11 C8.4495,11 8,11.45 8,12 L8,18 C8,18.55 8.4495,19 9,19 L15,19 C15.5505,19 16,18.55 16,18 L16,12 L15,11 Z M14,13.5 C14,13.7745 13.775,14 13.5,14 L10.5,14 C10.225,14 10,13.7745 10,13.5 L10,11 L14,11 L14,13.5 Z M13,11 L12,11 L12,13 L13,13 L13,11 Z M20.5865,5 L15,5 C14.4495,5 14,5.45 14,6 L14,9.99725944 L15,9.99725944 L17.003837,12 L17.003837,13 L21,13 C21.5505,13 22,12.55 22,12 L22,6.5635 L20.5865,5 Z M20,7.5 C20,7.7745 19.775,8 19.5,8 L16.5,8 C16.225,8 16,7.7745 16,7.5 L16,5 L20,5 L20,7.5 Z M19,5 L18,5 L18,7 L19,7 L19,5 Z"/></svg>