<svg xmlns="http://www.w3.org/2000/svg" width="31" height="25" viewBox="0 0 31 25"><path fill="#FFF" fill-opacity=".6" d="M11.5848333,22.8215538 C11.5577734,23.1075156 11.3878497,23.3551055 11.141779,23.5855702 C10.9953544,23.7227585 10.8713803,23.8196931 10.6112032,24.0089834 C10.7070004,24.0317056 10.7698814,24.0287898 10.8324755,24.007032 C11.0222185,23.9410892 11.2109262,23.9517012 11.4092881,24.0012157 C11.6773779,24.0681482 11.7749873,23.9861671 11.7401758,23.7154656 C11.7296854,23.634306 11.7296854,23.634306 11.7189925,23.5526879 C11.715262,23.5242661 11.715262,23.5242661 11.7115206,23.4957879 C11.6541544,23.0591334 11.6304967,22.8629624 11.6084887,22.614067 C11.6063823,22.5901126 11.6049402,22.5660335 11.6041729,22.5418949 C11.6000669,22.6361022 11.5936793,22.7281478 11.5848333,22.8215538 Z M24,12.4637861 L24,12.624275 L23.9660155,12.7974715 C23.7450817,13.3408772 23.7450817,13.3408772 23.5241827,13.8843362 C23.2763494,14.4937662 22.301523,14.7192025 21.8714937,14.1633165 C21.8385303,14.1211831 21.8385303,14.1211831 21.8023807,14.0762492 C21.7834629,14.0528464 21.7834629,14.0528464 21.7638945,14.0286937 C21.3010486,13.4571776 21.1474532,13.0855706 21.3603169,12.5027716 C21.3982535,12.3988524 21.4035495,12.2653293 21.3806951,12.2076319 C21.3088007,12.0261342 21.1766515,11.8300474 20.9797493,11.6026648 C20.3826512,10.9131065 20.1246353,10.3320054 20.2331089,9.58334823 C20.23565,9.56582976 20.189878,9.45267897 20.1370421,9.39680372 C20.0127128,9.26531224 19.8725002,9.13400008 19.6821928,8.96795157 C19.6617632,8.95012609 19.5942363,8.89216824 19.510989,8.82067544 C19.4360837,8.90726145 19.4356164,8.90779993 19.3608186,8.9939932 C18.9721338,9.44264315 18.7883853,9.69006487 18.6447998,9.99210215 C18.666405,10.2105745 18.6923821,10.3481675 18.7481018,10.653985 C18.93789,11.6953812 19.0596448,12.144761 19.3316614,12.6366165 C19.9918602,13.8303344 20.2914102,15.1298029 20.252677,16.5337899 C20.2350933,17.1720209 20.3931722,17.7521318 20.7316773,18.2889854 C21.2212335,19.065423 21.4471991,19.9297586 21.4386606,20.889277 C21.437423,21.0287902 21.4346712,21.1658694 21.4295431,21.3672378 C21.428247,21.4177807 21.428247,21.4177807 21.4269372,21.4681612 C21.4120923,22.039147 21.4100267,22.2902312 21.4239559,22.5980765 C21.4277133,22.681122 21.4850328,22.8089986 21.5515386,22.8782844 C21.6507416,22.9816078 21.7532405,23.0628111 22.0002315,23.2411082 C22.1493377,23.3487451 22.2165764,23.3984867 22.2981675,23.4632418 C22.8091407,23.8686044 22.7394028,24.5085644 22.1208668,24.7709873 C21.5635435,25.0074431 21.2562615,25.0699591 20.8174044,24.9133573 C19.9028459,25.1480777 19.1795663,24.5723525 19.2477209,23.6811064 C19.2566464,23.5636366 19.2778953,23.455519 19.314794,23.3122437 C19.4471891,22.7985611 19.4131564,22.363137 19.1963636,21.9555258 C19.1514922,21.8708833 19.1514922,21.8708833 19.1076446,21.7877771 C18.7445637,21.1001956 18.5448382,20.8110781 18.1974417,20.5437321 C17.4275951,19.9512768 17.1924816,19.0929688 17.4994218,18.1643082 C17.5187131,18.105916 17.5194891,18.1101084 17.4942028,18.08307 C16.8541794,17.3986867 16.3608755,16.6193692 16.0004593,15.7433139 C15.6416327,16.6134096 15.1495748,17.3909952 14.5108563,18.078304 C14.8312946,19.140891 14.514977,20.0198372 13.6311237,20.7103052 C13.4564816,20.846714 13.3651532,20.9360308 13.3228503,21.0118285 C13.1128877,21.3882084 12.9482973,21.7238736 12.6304469,22.404884 C12.6195567,22.4282048 12.6119862,22.4815363 12.6165828,22.5338117 C12.6370518,22.7653006 12.6596753,22.9528959 12.7153558,23.3767192 C12.7336356,23.5161139 12.7336356,23.5161139 12.7443358,23.5988962 C12.8654572,24.5407604 12.1148101,25.17122 11.152229,24.9308978 C10.7612592,25.0553207 10.4423806,24.9994835 9.94059352,24.8003434 C9.24578569,24.5247709 9.17213507,23.8608843 9.75589695,23.4220135 C9.81332878,23.3788143 9.85977869,23.3447983 9.96018914,23.2719366 C10.2135761,23.0880716 10.3195119,23.0060361 10.4315626,22.9010535 C10.5212737,22.8170319 10.5772752,22.7354341 10.5772748,22.7354382 C10.6074486,22.4168294 10.6035998,22.1000136 10.5734148,21.5798077 C10.4963482,20.2520549 10.607853,19.4006236 11.1109505,18.5800422 C11.575059,17.823098 11.7782218,17.0288427 11.7560155,16.1042697 C11.7306835,15.050381 11.9539812,14.0375134 12.4271943,13.1321179 C12.7908736,12.4362685 13.0139121,11.7342387 13.2880295,10.5572017 C13.3978832,10.0856157 13.3209961,9.77092119 13.021201,9.45955551 C12.9804446,9.41719965 12.9559684,9.38639947 12.9104531,9.3251916 C12.8964157,9.30640067 12.8761311,9.28104814 12.8495993,9.24913403 C12.7436396,9.12277758 12.6369626,8.99577147 12.4954606,8.82747036 C12.4216126,8.89598689 12.3589716,8.95399273 12.3294457,8.98086482 C12.1825696,9.11453954 12.0556756,9.2244882 11.9284529,9.32669144 C11.7920305,9.43632536 11.749872,9.54250725 11.7578746,9.768513 C11.7710007,10.1388101 11.7185525,10.4867928 11.579956,10.7810649 C11.4816943,10.9896114 11.379091,11.1315278 11.1449719,11.4172497 C11.0471902,11.5365803 11.0067713,11.5872347 10.9624044,11.6474936 C10.9319681,11.6886211 10.9319681,11.6886211 10.9023761,11.7281365 C10.6117141,12.1157442 10.5609834,12.2389817 10.6185876,12.4151972 C10.8112894,13.0046157 10.6945544,13.5509077 10.2532423,13.9938686 C10.0568647,14.3657693 9.74012624,14.4835296 9.36958779,14.4590912 C9.32466123,14.4561281 9.28888714,14.4523414 9.22637969,14.4447661 C9.19227941,14.4406157 9.19227941,14.4406157 9.16631091,14.4377318 C8.85339196,14.4048712 8.61202081,14.163065 8.49114485,13.9018961 C8.38733586,13.6775844 8.31303666,13.4978068 8.15360158,13.0963336 C8.09356985,12.9451718 8.06733813,12.8795075 8.03398455,12.7974715 L8,12.624275 L8,12.3192694 L8.08388167,12.1987187 C8.12473923,12.1400002 8.15821103,12.0931798 8.23067427,11.9927316 C8.39589306,11.7636872 8.46444819,11.6634247 8.53569891,11.5399837 C8.5571603,11.5027829 8.57009899,11.4477189 8.5677408,11.4299547 C8.44904644,10.5369558 8.64395338,9.70971162 9.15501218,8.96724126 C9.30727745,8.74602717 9.38920757,8.48672831 9.43164383,8.12221004 C9.43659093,8.07847477 9.43659093,8.07847477 9.44159045,8.03129673 C9.44701159,7.97989671 9.44701159,7.97989671 9.45310976,7.92520457 C9.48397964,7.65613429 9.52605725,7.4726625 9.62369628,7.28555657 C9.78012181,6.98570592 9.84979065,6.71632476 9.95948653,6.08705611 C9.9704487,6.02414217 9.9704487,6.02414217 9.98165786,5.96034448 C10.1310723,5.11387824 10.6966812,4.48642102 11.5436933,4.27737468 C11.826231,4.20765252 12.0556738,4.13174113 12.5566665,3.95092378 C12.590459,3.93872669 12.590459,3.93872669 12.6243897,3.92648781 C12.9587995,3.80591268 13.1500404,3.7403878 13.3673208,3.67549596 C13.7322854,3.56646501 14.0271856,3.37607301 14.3151941,3.07232858 C14.4613121,2.91826595 14.4664807,3.02748034 14.3125973,2.8993231 C13.8288074,2.49645907 13.7035947,1.70634049 14.2769814,1.37778583 C14.3803432,0.634685767 14.8224361,0.192440999 15.5245961,0.0634571244 C15.5513975,0.0479037846 15.5513975,0.0479037846 15.593963,0.031696889 L15.7746109,0 L16.2253891,0 L16.3746158,0.0213922394 C16.4194211,0.0345675217 16.4194211,0.0345675217 16.4635898,0.0476155227 C16.5563469,0.0750027641 16.5563469,0.0750027641 16.6358903,0.0980719004 C17.1877656,0.256569074 17.5600706,0.609076439 17.6887893,1.13899456 C17.7011097,1.18975406 17.7079009,1.22668786 17.7207007,1.30438359 C17.7402074,1.42273483 17.7277627,1.3979449 17.7132043,1.39159369 C18.0560539,1.54110828 18.1665267,2.00538852 18.0403656,2.29913392 C17.9387001,2.53570345 17.7978229,2.75348746 17.6240274,2.92712655 C17.6026135,2.94852142 17.604275,2.94286862 17.5167327,2.84447809 C17.5455676,2.87708849 17.5455676,2.87708849 17.5736275,2.90940955 C17.6384919,2.98499748 17.6384919,2.98499748 17.7001363,3.05749705 C17.9189499,3.31392309 18.0400235,3.42703915 18.1586353,3.48125031 C18.76073,3.75638056 19.4259946,3.98648779 20.1436908,4.17351291 C21.2679663,4.46651963 21.9143132,5.13436616 22.0696332,6.21040387 C22.0988623,6.41273595 22.1405868,6.5856598 22.2440948,6.96178463 C22.2537776,6.99696313 22.2537776,6.99696313 22.2635212,7.03242319 C22.2862963,7.1154157 22.3097692,7.18635501 22.3659175,7.34667744 C22.4797249,7.67257353 22.5268153,7.83713808 22.5529313,8.03703172 C22.6075675,8.45560368 22.7271869,8.79846528 22.9349267,9.11495488 C23.3732508,9.78275134 23.5339329,10.5397744 23.4406483,11.367756 C23.4338688,11.4280117 23.4482227,11.5069929 23.4712908,11.5492946 C23.5360714,11.6680435 23.6023846,11.7653948 23.765408,11.9888263 C23.8405986,12.0918786 23.8742126,12.1384938 23.9161183,12.1987187 L24,12.4637861 Z M22.9341346,12.536625 C22.7463459,12.2792515 22.6644907,12.1590837 22.5731184,11.9915896 C22.4561687,11.777131 22.4073936,11.5087496 22.4347617,11.2655061 C22.5049088,10.6428902 22.3898888,10.1009956 22.0765618,9.62363503 C21.786977,9.18245533 21.6209492,8.70657491 21.5490041,8.15539796 C21.5334542,8.03637736 21.4996132,7.91811494 21.4211224,7.69328506 C21.3428681,7.46979956 21.3148988,7.38527119 21.2846342,7.27498696 C21.2750545,7.24012347 21.2750545,7.24012347 21.2653756,7.20495877 C21.1517792,6.79217525 21.1038967,6.59372992 21.0673971,6.34106995 C20.9684383,5.65549555 20.6185957,5.29401609 19.8761164,5.10051241 C19.1022435,4.89884816 18.3801524,4.64908531 17.7201623,4.34749942 C17.4221906,4.21131241 17.2256309,4.0276716 16.9143505,3.66288442 C16.8512093,3.58863561 16.8512093,3.58863561 16.792164,3.51982729 C16.7677439,3.49170083 16.7677439,3.49170083 16.7441122,3.46497586 C16.4127955,3.0926023 16.558499,2.59688211 16.8909784,2.26469843 C16.9361233,2.21959423 16.9795078,2.16344524 17.0188618,2.09977967 C16.8427186,1.94669865 16.7692987,1.74458882 16.7220172,1.45772544 C16.7121846,1.39804173 16.7081265,1.37597191 16.7030582,1.3550905 C16.6591286,1.17423825 16.5601166,1.08049126 16.3430348,1.01814588 C16.2575092,0.993341468 16.2575092,0.993341468 16.1742635,0.96876217 C16.1632911,0.965520797 16.0641857,0.963011058 15.8769474,0.961232951 C15.8203939,0.98327008 15.7780957,0.995961948 15.7162851,1.00727578 C15.4371816,1.05854598 15.317308,1.17846072 15.2745278,1.44887138 C15.2174634,1.80958304 15.1197343,2.01727204 14.7995041,2.20086715 C14.9378907,2.12157066 14.9416004,2.14497919 14.9793745,2.17643464 C15.5623729,2.66196746 15.5863185,3.16794225 15.0667288,3.7157829 C14.6631772,4.14138329 14.2174602,4.42914499 13.6706975,4.59248696 C13.4773013,4.65024568 13.3003506,4.71087432 12.9832941,4.82519253 C12.9496611,4.83732403 12.9496611,4.83732403 12.9158816,4.84951643 C12.3809888,5.04256892 12.1275843,5.12640807 11.7980013,5.20773965 C11.3505652,5.31816886 11.0648133,5.63516722 10.9793493,6.11933996 C10.9684456,6.18139914 10.9684456,6.18139914 10.9575144,6.24413358 C10.8318143,6.96521014 10.7452072,7.3000848 10.5300518,7.71251428 C10.4988628,7.77228176 10.4776743,7.8646704 10.4587782,8.0293742 C10.4534738,8.07693906 10.4534738,8.07693906 10.4481507,8.1273754 C10.442947,8.17651604 10.442947,8.17651604 10.4371321,8.22793787 C10.3786763,8.73006062 10.2527727,9.12853036 10.001641,9.49337963 C9.62334661,10.0429687 9.48250432,10.6407461 9.5714043,11.3095865 C9.60197659,11.5398867 9.54189688,11.7955717 9.42273415,12.0021261 C9.32994539,12.1628815 9.24927881,12.2808572 9.06535589,12.5358313 C9.05254494,12.5535933 9.0412702,12.5692369 9.03101949,12.5834786 C9.0492867,12.6291511 9.07069572,12.6829671 9.09977659,12.756197 C9.24383173,13.118942 9.31423232,13.2901486 9.40022649,13.4781007 C9.43566352,13.4268578 9.47005576,13.3817263 9.51871116,13.3329245 C9.70063119,13.1503247 9.73975435,12.9672377 9.65249777,12.7003453 C9.46980809,12.1414836 9.61531512,11.7880108 10.063515,11.1903248 C10.1066461,11.1327515 10.1066461,11.1327515 10.1334938,11.0964718 C10.1910112,11.0183521 10.2384177,10.9589405 10.3419716,10.8325656 C10.530857,10.6020476 10.6028193,10.5025125 10.6566084,10.3883527 C10.7237271,10.2458446 10.7551942,10.037067 10.746821,9.80085301 C10.7290254,9.29828127 10.8844871,8.90673006 11.2752446,8.59270334 C11.384607,8.50484802 11.4967509,8.40767977 11.6296867,8.28669239 C11.7102629,8.21335846 12.0836375,7.86493436 12.1927257,7.76584425 L12.592349,7.40284677 L12.93743,7.8132602 C13.2815116,8.22228157 13.4621605,8.43712132 13.6407786,8.65012264 C13.7097448,8.73423461 13.7097448,8.73423461 13.7353603,8.76876799 C14.298957,9.36259115 14.4543052,9.9984228 14.2757557,10.7649099 C13.9852376,12.01237 13.7423355,12.7769218 13.3332441,13.559661 C12.9349783,14.3216604 12.745695,15.18024 12.7673783,16.0823301 C12.7937404,17.1799294 12.5457459,18.1494517 11.9850605,19.0639094 C11.6069892,19.6805657 11.5164628,20.3718095 11.5835066,21.5268828 C11.6036238,21.8735811 11.612993,22.1411926 11.6089129,22.3835373 C11.6208086,22.2550826 11.6525464,22.1289809 11.7057213,22.0151105 C12.0328349,21.3142533 12.2045911,20.963974 12.4290712,20.5615699 C12.5520606,20.3411993 12.7164997,20.1803824 12.9886955,19.9677766 C13.5649648,19.5175938 13.7362666,19.0416007 13.528762,18.4227764 C13.4080133,18.0625782 13.4910331,17.7233937 13.7525959,17.4420135 C14.5893475,16.5416065 15.141797,15.4590302 15.4500329,14.1720392 C15.4657308,14.1095934 15.5421212,13.9274863 15.5257187,13.9684552 L16.05857,12.6375367 L16.4835295,14.0030567 C16.4644262,13.9416723 16.5964224,14.3574209 16.6240198,14.4556364 C16.9507077,15.6360242 17.4805724,16.6213825 18.250409,17.4445762 C18.5218537,17.7348307 18.5863971,18.0835666 18.4645897,18.4522613 C18.2777063,19.0176847 18.3994884,19.4622636 18.8341427,19.796763 C19.3273444,20.1763163 19.5870455,20.5522528 20.0118367,21.356698 C20.0557711,21.4399672 20.0557711,21.4399672 20.0992492,21.5219812 C20.4319377,22.1474981 20.4841942,22.816082 20.2974055,23.5408076 C20.2728787,23.6360435 20.2606933,23.6980445 20.2567042,23.7505455 C20.2384569,23.9891618 20.3268868,24.0595513 20.5737046,24.0020375 C20.7841717,23.9530189 20.9782383,23.9438884 21.1732409,24.0135519 C21.2362962,24.0360525 21.2963974,24.0386232 21.3952495,24.0115569 C21.0925046,23.7930124 20.9585168,23.6868626 20.8041449,23.5260787 C20.5803836,23.2929641 20.4273927,22.9516499 20.4132631,22.6393641 C20.3980262,22.3026152 20.4002105,22.0371028 20.4156194,21.4444225 C20.4169271,21.3941233 20.4169271,21.3941233 20.4182128,21.3439853 C20.4232226,21.1472589 20.4258872,21.0145232 20.4270703,20.8811623 C20.434096,20.0916448 20.2535411,19.4010087 19.8638768,18.7829999 C19.4260047,18.0885549 19.2188168,17.3282259 19.2413976,16.508618 C19.2757136,15.264745 19.0136697,14.1279809 18.4361544,13.0837646 C18.0990947,12.4742992 17.9587818,11.956424 17.756131,10.8444537 C17.6969778,10.5197937 17.6719668,10.3873177 17.6381648,10.2252915 C17.5952358,10.0195366 17.631446,9.78866366 17.7228844,9.59636385 C17.9138162,9.19473201 18.1371781,8.89396985 18.5797824,8.38308191 C18.6558566,8.29541595 18.6558566,8.29541595 18.7299057,8.2098201 C18.863363,8.05505333 18.9549734,7.94431486 19.0382594,7.83498108 L19.3736148,7.39474312 L19.7924527,7.76482966 C19.9083749,7.86725889 20.3050958,8.20643107 20.366423,8.2599408 C20.5785639,8.44503968 20.7401322,8.5963519 20.8895519,8.75437912 C21.1272023,9.00569998 21.2824286,9.38942774 21.2352716,9.71452135 C21.172886,10.1450909 21.3257348,10.4893354 21.760935,10.9919262 C22.0222328,11.2936727 22.2098403,11.5720501 22.32748,11.869032 C22.4407805,12.1550667 22.4264911,12.5153282 22.3160509,12.8178558 C22.2495767,12.9998554 22.2937919,13.1068293 22.5656241,13.4424841 C22.5838095,13.4649295 22.5850233,13.4664277 22.6013731,13.4866534 C22.7832764,13.0391324 22.8056967,12.9839774 22.9684393,12.5836968 C22.9581023,12.5694897 22.9467534,12.5539196 22.9341346,12.536625 Z"/></svg>