<svg xmlns="http://www.w3.org/2000/svg" xmlns:xlink="http://www.w3.org/1999/xlink" width="31" height="25" viewBox="0 0 31 25"><defs><path id="a" d="M16,4 L16.0007343,4.01450442 C17.9738929,4.12913087 19.7664203,4.91681979 21.1521243,6.15137896 L21.2238548,6.21601573 C21.4191067,6.393966 21.606034,6.58089334 21.7839843,6.77614515 L21.8624147,6.85553244 C23.0878135,8.24299321 23.8713938,10.0317646 23.9855405,12.000006 L24,12 L24,13 L23.985501,13.0006419 C23.8710242,14.9715901 23.0849925,16.7623161 21.8528366,18.1473891 L21.8624147,18.1568542 L21.5164303,18.504379 C21.5022844,18.518553 21.4880889,18.5326774 21.4738438,18.5467518 L21.473,18.545 L21.155308,18.863961 L19.387541,17.0961941 L20.0946478,16.3890873 L21.1443935,17.4390427 C22.2223897,16.2090032 22.8739303,14.6601745 22.9835028,13.0009719 L21.5,13 L21.5,12 L22.9836081,12.0001573 C22.8722705,10.308084 22.1997766,8.76927916 21.1504741,7.56809057 L20.0946478,8.62329939 L19.906,8.435 L16.9825214,12.2702909 C16.9868499,12.2984567 16.9903949,12.3268807 16.9931334,12.35554 L17,12.5 C17,13.3284271 16.3284271,14 15.5,14 C14.6715729,14 14,13.3284271 14,12.5 C14,11.6715729 14.6715729,11 15.5,11 C15.5829464,11 15.6643203,11.0067325 15.7436051,11.019681 L19.567,8.096 L19.387541,7.91619261 L20.4439787,6.86009167 C19.2412732,5.80494631 17.6981957,5.12836897 16.0008446,5.01645792 L16,6.5 L15,6.5 L15.0004142,5.01637502 C13.3068217,5.12775468 11.7667607,5.80129793 10.5650711,6.85216494 L11.6292415,7.91619261 L10.9221347,8.62329939 L9.85744784,7.55903648 C8.8035555,8.76160277 8.12794121,10.3039854 8.01637502,12.0004142 L9.5,12 L9.5,13 L8.01648657,13.0008158 C8.12628052,14.6639244 8.78059197,16.2161794 9.86322664,17.4477192 L10.9221347,16.3890873 L11.6292415,17.0961941 L9.86147453,18.863961 L9.527,18.529 L9.51853363,18.5392111 C9.40178196,18.4235688 9.28836589,18.3045649 9.1784426,18.1823566 L9.15436775,18.1568542 C7.91838237,16.7699515 7.12926856,14.9758822 7.01450998,13.0008301 L7,13 L7,12 L7.01443136,12.0005248 C7.26340393,7.70385697 10.703857,4.26340393 15.0005248,4.01443136 L15,4 L16,4 Z"/></defs><use xlink:href="#a" fill="#FFF" fill-opacity=".15" fill-rule="evenodd"/></svg>