<svg xmlns="http://www.w3.org/2000/svg" width="31" height="25" viewBox="0 0 31 25"><path fill="#00EBFF" fill-rule="evenodd" d="M8.43211197,1.99948538 L8.97934374,2.83691935 C5.97144154,4.91112316 4,8.38076269 4,12.3108571 C4,16.2409514 5.97144154,19.710591 8.97934374,21.7847948 L8.43110815,22.6215393 C5.15107867,20.3684751 3,16.5908718 3,12.3108571 C3,8.03040575 5.15151756,4.25246829 8.43211197,1.99948538 Z M22.5688918,2.00017484 C25.8489213,4.25323899 28,8.03084235 28,12.3108571 C28,16.5908718 25.8489213,20.3684751 22.5688918,22.6215393 L22.0216489,21.7841102 C25.0289922,19.7098276 27,16.2405191 27,12.3108571 C27,8.38119504 25.0289922,4.91188656 22.0216489,2.83760395 Z M9.52635653,3.67456638 L10.0738365,4.51197063 C7.61132192,6.22850218 6,9.08150742 6,12.3108571 C6,15.5402067 7.61132192,18.3932119 10.0738365,20.1097435 L9.52635653,20.9471477 C6.79127585,19.0517397 5,15.8904858 5,12.3108571 C5,8.73122827 6.79127585,5.56997437 9.52635653,3.67456638 Z M21.4736435,3.67456638 C24.2087242,5.56997437 26,8.73122827 26,12.3108571 C26,15.8900478 24.2091626,19.050966 21.4746476,20.9464518 L20.927168,20.1090432 C23.3891163,18.392436 25,15.5397676 25,12.3108571 C25,9.08194655 23.3891163,6.22927809 20.927168,4.51267094 Z M20.3787717,5.34954477 C22.56866,6.88714715 24,9.43184843 24,12.3108571 C24,15.1898657 22.56866,17.734567 20.3787717,19.2721693 L19.8313974,18.4344293 C21.748635,17.0758387 23,14.8394838 23,12.3108571 C23,9.78223028 21.748635,7.54587544 19.8313974,6.18728479 Z M10.6212283,5.34954477 L11.1695906,6.18658481 C9.25179487,7.54510721 8,9.78179595 8,12.3108571 C8,14.8399182 9.25179487,17.0766069 11.1695906,18.4351293 L10.6222375,19.2728778 C8.43177972,17.7353487 7,15.1903079 7,12.3108571 C7,9.43184843 8.43133995,6.88714715 10.6212283,5.34954477 Z M19.2834755,7.02485886 C20.9283509,8.20427921 22,10.1324196 22,12.3108571 C22,14.4892945 20.9283509,16.4174349 19.2834755,17.5968553 L18.735778,16.7587759 C20.108132,15.7586979 21,14.1389309 21,12.3108571 C21,10.4827832 20.108132,8.86301623 18.735778,7.86293825 Z M11.7175347,7.02413464 L12.2652272,7.86220588 C10.8923035,8.86222534 10,10.4823369 10,12.3108571 C10,14.1393772 10.8923035,15.7594888 12.2652272,16.7595082 L11.7175347,17.5975795 C10.0720879,16.4182243 9,14.4897405 9,12.3108571 C9,10.1319737 10.0720879,8.20348981 11.7175347,7.02413464 Z M12.812973,8.7008194 L13.3617577,9.53973694 C12.5334325,10.1798272 12,11.1830472 12,12.3108571 C12,13.4386669 12.5334325,14.4418869 13.3617577,15.0819772 L12.812973,15.9208947 C11.7125955,15.1005268 11,13.7889097 11,12.3108571 C11,10.8328044 11.7125955,9.52118729 12.812973,8.7008194 Z M18.188037,8.70157263 C19.2878405,9.52199 20,10.8332566 20,12.3108571 C20,13.7884575 19.2878405,15.0997241 18.188037,15.9201415 L17.639249,15.0811989 C18.4669996,14.4410739 19,13.4382099 19,12.3108571 C19,11.1835042 18.4669996,10.1806402 17.639249,9.54051519 Z M15.5,10.8954969 C16.3284271,10.8954969 17,11.5670697 17,12.3954969 C17,13.223924 16.3284271,13.8954969 15.5,13.8954969 C14.6715729,13.8954969 14,13.223924 14,12.3954969 C14,11.5670697 14.6715729,10.8954969 15.5,10.8954969 Z"/></svg>