<svg xmlns="http://www.w3.org/2000/svg" width="31" height="25" viewBox="0 0 31 25"><path fill="#FFF" fill-opacity=".6" fill-rule="evenodd" d="M20.5,5 C21.8807119,5 23,6.11928813 23,7.5 C23,8.70968176 22.1408321,9.7186941 20.999426,9.9501074 L20.999426,15.0498926 C22.1408321,15.2813059 23,16.2903182 23,17.5 C23,18.8807119 21.8807119,20 20.5,20 C19.2906746,20 18.2819003,19.1413382 18.0500973,18.0004345 L12.9499027,18.0004345 C12.7180997,19.1413382 11.7093254,20 10.5,20 C9.11928813,20 8,18.8807119 8,17.5 C8,16.2903182 8.85916789,15.2813059 10.000574,15.0498926 L10.000574,9.9501074 C8.85916789,9.7186941 8,8.70968176 8,7.5 C8,6.11928813 9.11928813,5 10.5,5 C11.7096818,5 12.7186941,5.85916789 12.9501074,7.00057405 L18.0498926,7.00057405 C18.2813059,5.85916789 19.2903182,5 20.5,5 Z M14.145393,14.6015572 L12.6226825,16.1786719 C12.7775141,16.4268795 12.890022,16.7042131 12.9501074,17.000574 L18.0498926,17.000574 C18.1092202,16.7079509 18.2196563,16.4338781 18.3714794,16.188077 L16.8435991,14.6086266 C16.4555526,14.8564018 15.9945459,15 15.5,15 C15.0007694,15 14.5357163,14.8536684 14.145393,14.6015572 Z M19.0403714,9.52988122 L17.5521901,11.0718493 C17.8051061,11.4345993 17.9643017,11.8675558 17.9946823,12.3356243 L18,12.5 C18,13.0327156 17.8333802,13.5265151 17.5494121,13.9321269 L19.0382324,15.4716613 C19.320227,15.2680792 19.6463718,15.1218574 19.9995655,15.0500973 L19.9995655,9.94990271 C19.6472645,9.87832397 19.3218758,9.73265946 19.0403714,9.52988122 Z M11.9420426,9.54243433 C11.6646046,9.7386746 11.3454229,9.87980971 11.0004345,9.94990271 L11.000516,15.0501139 C11.3496357,15.1210584 11.6723251,15.2647572 11.9520671,15.4646933 L13.4422766,13.9201815 C13.1925725,13.5590667 13.0354761,13.1290213 13.0053177,12.6643757 L13,12.5 C13,11.9759818 13.1612236,11.4896194 13.4367733,11.0878101 L11.9420426,9.54243433 Z M18.0500848,8.00037308 L12.9499027,8.00043449 C12.888922,8.30057338 12.7741699,8.58117932 12.6161408,8.83175787 L14.1362267,10.4043917 C14.5284267,10.148635 14.9968555,10 15.5,10 C15.9962195,10 16.4586724,10.1445717 16.8475361,10.3938925 L18.3731455,8.81461661 C18.2206283,8.56838983 18.1096758,8.29370975 18.0500848,8.00037308 Z"/></svg>