<svg xmlns="http://www.w3.org/2000/svg" width="31" height="25" viewBox="0 0 31 25"><path fill="#00EBFF" d="M7,2 C9.209139,2 11,3.790861 11,6 C11,8.209139 9.209139,10 7,10 C4.790861,10 3,8.209139 3,6 C3,3.790861 4.790861,2 7,2 Z M24,2 C26.209139,2 28,3.790861 28,6 C28,8.209139 26.209139,10 24,10 C21.790861,10 20,8.209139 20,6 C20,3.790861 21.790861,2 24,2 Z M15.5,9 C17.709139,9 19.5,10.790861 19.5,13 C19.5,15.209139 17.709139,17 15.5,17 C13.290861,17 11.5,15.209139 11.5,13 C11.5,10.790861 13.290861,9 15.5,9 Z M7,16 C9.209139,16 11,17.790861 11,20 C11,22.209139 9.209139,24 7,24 C4.790861,24 3,22.209139 3,20 C3,17.790861 4.790861,16 7,16 Z M24,16 C26.209139,16 28,17.790861 28,20 C28,22.209139 26.209139,24 24,24 C21.790861,24 20,22.209139 20,20 C20,17.790861 21.790861,16 24,16 Z"/></svg>