<svg xmlns="http://www.w3.org/2000/svg" width="31" height="25" viewBox="0 0 31 25"><path fill="#FFF" d="M7,16 C9.209139,16 11,17.790861 11,20 C11,22.209139 9.209139,24 7,24 C4.790861,24 3,22.209139 3,20 C3,17.790861 4.790861,16 7,16 Z M24,16 C26.209139,16 28,17.790861 28,20 C28,22.209139 26.209139,24 24,24 C21.790861,24 20,22.209139 20,20 C20,17.790861 21.790861,16 24,16 Z M24,17 C22.3431458,17 21,18.3431458 21,20 C21,21.6568542 22.3431458,23 24,23 C25.6568542,23 27,21.6568542 27,20 C27,18.3431458 25.6568542,17 24,17 Z M7,17 C5.34314575,17 4,18.3431458 4,20 C4,21.6568542 5.34314575,23 7,23 C8.65685425,23 10,21.6568542 10,20 C10,18.3431458 8.65685425,17 7,17 Z M15.5,9 C17.709139,9 19.5,10.790861 19.5,13 C19.5,15.209139 17.709139,17 15.5,17 C13.290861,17 11.5,15.209139 11.5,13 C11.5,10.790861 13.290861,9 15.5,9 Z M15.5,10 C13.8431458,10 12.5,11.3431458 12.5,13 C12.5,14.6568542 13.8431458,16 15.5,16 C17.1568542,16 18.5,14.6568542 18.5,13 C18.5,11.3431458 17.1568542,10 15.5,10 Z M7,2 C9.209139,2 11,3.790861 11,6 C11,8.209139 9.209139,10 7,10 C4.790861,10 3,8.209139 3,6 C3,3.790861 4.790861,2 7,2 Z M24,2 C26.209139,2 28,3.790861 28,6 C28,8.209139 26.209139,10 24,10 C21.790861,10 20,8.209139 20,6 C20,3.790861 21.790861,2 24,2 Z M7,3 C5.34314575,3 4,4.34314575 4,6 C4,7.65685425 5.34314575,9 7,9 C8.65685425,9 10,7.65685425 10,6 C10,4.34314575 8.65685425,3 7,3 Z M24,3 C22.3431458,3 21,4.34314575 21,6 C21,7.65685425 22.3431458,9 24,9 C25.6568542,9 27,7.65685425 27,6 C27,4.34314575 25.6568542,3 24,3 Z"/></svg>